<?xml version="1.0" encoding="iso-8859-1"?>
<!-- Uploaded to: SVG Repo, www.svgrepo.com, Generator: SVG Repo Mixer Tools -->
<svg height="800px" width="800px" version="1.1" id="Layer_1" xmlns="http://www.w3.org/2000/svg" xmlns:xlink="http://www.w3.org/1999/xlink" 
	 viewBox="0 0 512 512" xml:space="preserve">
<path style="fill:#459492;" d="M463.991,191.794l25.317,119.077l-64.097-30.927l-45.971,54.326l-25.338-119.175
	C391.571,210.095,428.348,202.263,463.991,191.794z"/>
<path style="fill:#FF709D;" d="M463.926,25.199l-29.652,130.755L353.934,48.49C391.571,43.49,428.304,35.657,463.926,25.199z"/>
<path style="fill:#FF3776;" d="M463.926,358.422l-29.652,130.755l-80.351-107.476C391.56,376.712,428.304,368.879,463.926,358.422z"
	/>
<path style="fill:#FE841A;" d="M312.266,386.026v121.888l-56.265-43.574l-56.265,43.574V386.026
	c18.573,1.405,37.343,2.113,56.265,2.113C274.923,388.139,293.693,387.431,312.266,386.026z"/>
<path style="fill:#FE5D26;" d="M312.266,52.815v121.877l-56.265-43.574l-56.265,43.574V52.815
	c18.573,1.405,37.343,2.113,56.265,2.113C274.923,54.928,293.693,54.22,312.266,52.815z"/>
<path style="fill:#FFD102;" d="M312.266,219.42l-56.265,121.888L199.736,219.42c18.573,1.405,37.343,2.113,56.265,2.113
	C274.923,221.533,293.693,220.825,312.266,219.42z"/>
<path style="fill:#FFD3C7;" d="M158.101,215.095l-25.338,119.175l-45.971-54.326l-64.098,30.927l25.317-119.077
	C83.655,202.263,120.431,210.095,158.101,215.095z"/>
<path style="fill:#57BAB7;" d="M158.079,381.701L77.729,489.177L48.076,358.422C83.698,368.879,120.442,376.712,158.079,381.701z"/>
<path style="fill:#E60048;" d="M158.068,48.49l-80.34,107.465L48.076,25.199C83.698,35.657,120.431,43.49,158.068,48.49z"/>
<g>
	<path style="fill:#9AD6D4;" d="M256.001,63.094C170,63.094,85.695,48.58,5.428,19.954c-4.25-1.515-6.467-6.19-4.951-10.439
		s6.189-6.469,10.44-4.951c78.5,27.994,160.957,42.19,245.083,42.19s166.584-14.194,245.083-42.19
		c4.252-1.516,8.923,0.7,10.44,4.951c1.515,4.25-0.702,8.924-4.951,10.439C426.307,48.579,342.003,63.094,256.001,63.094z"/>
	<path style="fill:#9AD6D4;" d="M256.001,229.703c-86.001,0-170.306-14.513-250.573-43.138c-4.25-1.516-6.466-6.19-4.951-10.439
		c1.516-4.251,6.189-6.47,10.44-4.951c78.5,27.994,160.957,42.188,245.083,42.188s166.584-14.194,245.083-42.188
		c4.252-1.519,8.923,0.7,10.44,4.951c1.515,4.25-0.702,8.924-4.951,10.439C426.307,215.189,342.003,229.703,256.001,229.703z"/>
	<path style="fill:#9AD6D4;" d="M256.001,396.312c-86.001,0-170.306-14.513-250.573-43.138c-4.25-1.516-6.466-6.19-4.951-10.439
		c1.516-4.25,6.189-6.47,10.44-4.951c78.5,27.994,160.957,42.188,245.083,42.188s166.584-14.194,245.083-42.188
		c4.252-1.52,8.923,0.7,10.44,4.951c1.515,4.25-0.702,8.924-4.951,10.439C426.307,381.799,342.003,396.312,256.001,396.312z"/>
</g>
</svg>