<?xml version="1.0" encoding="iso-8859-1"?>
<!-- Uploaded to: SVG Repo, www.svgrepo.com, Generator: SVG Repo Mixer Tools -->
<svg height="800px" width="800px" version="1.1" id="Layer_1" xmlns="http://www.w3.org/2000/svg" xmlns:xlink="http://www.w3.org/1999/xlink" 
	 viewBox="0 0 512.001 512.001" xml:space="preserve">
<path style="fill:#36D9D9;" d="M148.453,380.22v56.338c0,20.316-11.593,38.851-29.86,47.741l-3.594,1.749L72.29,506.789
	c-7.138,3.457-14.721,5.13-22.191,5.13c-12.938,0-25.537-5.018-35.241-14.831c-15.388-15.278-19.181-37.803-9.701-57.43
	l20.741-42.71l1.75-3.595c8.89-18.267,27.425-29.859,47.739-29.859h56.337C140.964,363.493,148.453,370.982,148.453,380.22z"/>
<path style="fill:#43BFBF;" d="M143.5,368.336L14.807,497.029c0,0.002,0,0.004,0,0.007c9.71,9.848,22.332,14.884,35.292,14.884
	c7.47,0,15.053-1.673,22.191-5.13l42.708-20.742l6.075-2.956c16.75-8.151,27.379-25.145,27.379-43.773V380.22
	C148.453,375.564,146.558,371.365,143.5,368.336z"/>
<path style="fill:#D7EBFF;" d="M219.49,309.185v126.012l-33.454,16.281l-37.582,18.288l-33.454,16.281v-89.1h-89.1l16.282-33.454
	l18.288-37.581l16.17-33.454h126.124C212.017,292.458,219.49,299.93,219.49,309.185z"/>
<path style="fill:#BDDEFF;" d="M214.535,297.3l-99.647,99.647h0.11v89.1l33.454-16.281l37.582-18.288l33.454-16.281V309.185
	C219.49,304.53,217.594,300.329,214.535,297.3z"/>
<path style="fill:#FFC033;" d="M399.252,347.881c-12.752,6.146,11.371-5.562-179.762,87.316l-33.454,16.281V325.913H60.47
	l16.17-33.454c92.841-190.923,81.281-167.163,87.429-179.762c5.034-10.548,18.85-12.597,26.874-4.572l94.565,94.676
	c6.134,6.134,6.95,16.697,0,23.641l-23.64,23.641c-6.469,6.468-6.469,17.173,0,23.641c6.577,6.579,17.172,6.468,23.64,0
	c2.061-2.061,23.938-24.273,26.319-25.76c6.468-4.015,15.499-3.345,21.075,2.119l70.925,70.923
	C412.095,329.522,409.476,343.001,399.252,347.881z"/>
<path style="fill:#F9A926;" d="M332.899,250.082c-5.576-5.464-14.607-6.133-21.075-2.119c-2.381,1.486-24.258,23.699-26.319,25.76
	c-6.468,6.468-17.062,6.579-23.64,0c-6.469-6.468-6.469-17.173,0-23.641c1.73-1.73,22.472-22.412,24.114-24.225L185.924,325.913
	h0.112v125.566l33.454-16.281c191.132-92.878,167.01-81.171,179.762-87.316c10.225-4.88,12.844-18.359,4.572-26.875L332.899,250.082
	z"/>
<path style="fill:#FFEFD9;" d="M460.918,287.551c3.234,6.802,4.908,14.051,4.908,21.634c0,38.919-42.374,63.006-75.829,43.156
	c-3.57-2.007-6.804-4.572-9.814-7.583l-59.213-59.214l-11.819,11.821c-19.515,19.627-51.409,19.627-70.925,0
	c-4.125-4.126-7.359-8.698-9.59-13.716c0-0.112-0.11-0.223-0.11-0.335c-8.921-18.623-5.576-41.595,9.701-56.873l11.822-11.821
	c-77.726-77.837-61.222-61.333-82.744-82.855c-3.01-3.011-5.576-6.356-7.696-9.925c-25.313-41.93,20.185-92.334,64.791-70.812
	c70.813-70.7,176.082-64.456,238.419-2.007c0,0,0,0,0.112,0C524.815,110.912,532.511,215.959,460.918,287.551z"/>
<path style="fill:#FFD9B3;" d="M460.918,287.551c3.234,6.802,4.908,14.051,4.908,21.634c0,38.919-42.374,63.006-75.829,43.156
	c-3.57-2.007-6.804-4.572-9.814-7.583l-59.213-59.214l-11.819,11.821c-19.515,19.627-51.409,19.627-70.925,0
	c-4.125-4.126-7.359-8.698-9.59-13.716c0-0.112-0.11-0.223-0.11-0.335L462.816,49.021c0,0,0,0,0.112,0
	C524.815,110.912,532.511,215.959,460.918,287.551z"/>
<path style="fill:#FFF7E6;" d="M426.121,254.304c-4.28,0-8.56-1.634-11.826-4.901c-6.534-6.528-6.534-17.12,0-23.653
	c26.082-26.088,26.082-68.543,0-94.629c-6.534-6.534-6.534-17.124,0-23.653c6.534-6.534,17.12-6.534,23.653,0
	c39.128,39.134,39.128,102.803,0,141.936C434.681,252.671,430.401,254.304,426.121,254.304z"/>
</svg>